<?xml version="1.0" encoding="UTF-8" standalone="no"?>
<!-- Created with Inkscape (http://www.inkscape.org/) -->

<svg
   xmlns:dc="http://purl.org/dc/elements/1.1/"
   xmlns:cc="http://creativecommons.org/ns#"
   xmlns:rdf="http://www.w3.org/1999/02/22-rdf-syntax-ns#"
   xmlns:svg="http://www.w3.org/2000/svg"
   xmlns="http://www.w3.org/2000/svg"
   xmlns:sodipodi="http://sodipodi.sourceforge.net/DTD/sodipodi-0.dtd"
   xmlns:inkscape="http://www.inkscape.org/namespaces/inkscape"
   version="1.1"
   id="svg2"
   width="1919"
   height="800"
   viewBox="0 0 1919 800"
   sodipodi:docname="hearts.svg"
   inkscape:version="0.92.4 (5da689c313, 2019-01-14)">
  <metadata
     id="metadata8">
    <rdf:RDF>
      <cc:Work
         rdf:about="">
        <dc:format>image/svg+xml</dc:format>
        <dc:type
           rdf:resource="http://purl.org/dc/dcmitype/StillImage" />
        <dc:title />
      </cc:Work>
    </rdf:RDF>
  </metadata>
  <defs
     id="defs6" />
  <sodipodi:namedview
     pagecolor="#ffffff"
     bordercolor="#666666"
     borderopacity="1"
     objecttolerance="10"
     gridtolerance="10"
     guidetolerance="10"
     inkscape:pageopacity="0"
     inkscape:pageshadow="2"
     inkscape:window-width="1920"
     inkscape:window-height="1001"
     id="namedview4"
     showgrid="false"
     inkscape:zoom="0.2498272"
     inkscape:cx="1502.9727"
     inkscape:cy="65.105554"
     inkscape:window-x="-9"
     inkscape:window-y="-9"
     inkscape:window-maximized="1"
     inkscape:current-layer="svg2" />
  <path
     style="opacity:1;fill:#ffd5d5;fill-opacity:1;stroke:none;stroke-width:4.34688139;stroke-linecap:round;stroke-linejoin:round;stroke-miterlimit:4;stroke-dasharray:none;stroke-dashoffset:3.5999999;stroke-opacity:1"
     d="m 13.818438,22.071403 c 39.684301,-39.684308 75.979853,23.354461 75.979853,23.354461 0,0 34.147239,-65.187062 75.979839,-23.354461 41.8326,41.832602 -75.979839,144.486257 -75.979839,144.486257 0,0 -114.457282,-106.008832 -75.979853,-144.486257 z"
     id="rect833"
     inkscape:connector-curvature="0"
     sodipodi:nodetypes="sczcs" />
  <path
     style="opacity:1;fill:#530000;fill-opacity:1;stroke:none;stroke-width:4.34688139;stroke-linecap:round;stroke-linejoin:round;stroke-miterlimit:4;stroke-dasharray:none;stroke-dashoffset:3.5999999;stroke-opacity:1"
     d="m 185.7821,22.071394 c 39.6843,-39.684299 75.97984,23.354461 75.97984,23.354461 0,0 34.14724,-65.187053 75.97985,-23.354461 41.83263,41.832602 -75.97985,144.486276 -75.97985,144.486276 0,0 -114.45727,-106.008851 -75.97984,-144.486276 z"
     id="rect833-1"
     inkscape:connector-curvature="0"
     sodipodi:nodetypes="sczcs" />
  <path
     style="opacity:1;fill:#800000;fill-opacity:1;stroke:none;stroke-width:4.34688139;stroke-linecap:round;stroke-linejoin:round;stroke-miterlimit:4;stroke-dasharray:none;stroke-dashoffset:3.5999999;stroke-opacity:1"
     d="m 529.70946,345.28501 c 39.68429,-39.6843 75.97979,23.35446 75.97979,23.35446 0,0 34.14725,-65.18705 75.97985,-23.35446 41.83263,41.83261 -75.97985,144.48626 -75.97985,144.48626 0,0 -114.45728,-106.00884 -75.97979,-144.48626 z"
     id="rect833-1-3"
     inkscape:connector-curvature="0"
     sodipodi:nodetypes="sczcs" />
  <path
     style="opacity:1;fill:#ff8989;fill-opacity:1;stroke:none;stroke-width:4.34688139;stroke-linecap:round;stroke-linejoin:round;stroke-miterlimit:4;stroke-dasharray:none;stroke-dashoffset:3.5999999;stroke-opacity:1"
     d="m 357.74577,345.28501 c 39.6843,-39.6843 75.97985,23.35446 75.97985,23.35446 0,0 34.14724,-65.18706 75.97984,-23.35446 41.83259,41.83261 -75.97984,144.48626 -75.97984,144.48626 0,0 -114.45728,-106.00883 -75.97985,-144.48626 z"
     id="rect833-4"
     inkscape:connector-curvature="0"
     sodipodi:nodetypes="sczcs" />
  <path
     style="opacity:1;fill:#800000;fill-opacity:1;stroke:none;stroke-width:3.10609484;stroke-linecap:round;stroke-linejoin:round;stroke-miterlimit:4;stroke-dasharray:none;stroke-dashoffset:3.5999999;stroke-opacity:1"
     d="m 547.8133,205.28312 c 30.29525,-26.54218 58.00357,15.62023 58.00357,15.62023 0,0 26.06821,-43.59927 58.0035,-15.62023 31.93527,27.97902 -58.0035,96.63721 -58.0035,96.63721 0,0 -87.37749,-70.90224 -58.00357,-96.63721 z"
     id="rect833-1-1"
     inkscape:connector-curvature="0"
     sodipodi:nodetypes="sczcs" />
  <path
     style="opacity:1;fill:#800000;fill-opacity:1;stroke:none;stroke-width:3.10609484;stroke-linecap:round;stroke-linejoin:round;stroke-miterlimit:4;stroke-dasharray:none;stroke-dashoffset:3.5999999;stroke-opacity:1"
     d="m 203.886,528.49673 c 30.29525,-26.54217 58.0035,15.62025 58.0035,15.62025 0,0 26.06821,-43.59929 58.00351,-15.62025 31.93534,27.97903 -58.00351,96.63721 -58.00351,96.63721 0,0 -87.37742,-70.90223 -58.0035,-96.63721 z"
     id="rect833-1-7-5"
     inkscape:connector-curvature="0"
     sodipodi:nodetypes="sczcs" />
  <path
     style="opacity:1;fill:#800000;fill-opacity:1;stroke:none;stroke-width:3.10609484;stroke-linecap:round;stroke-linejoin:round;stroke-miterlimit:4;stroke-dasharray:none;stroke-dashoffset:3.5999999;stroke-opacity:1"
     d="m 203.88598,366.88992 c 30.29532,-26.54218 58.00357,15.62025 58.00357,15.62025 0,0 26.0682,-43.59928 58.00349,-15.62025 31.9353,27.97903 -58.00349,96.63722 -58.00349,96.63722 0,0 -87.3775,-70.90224 -58.00357,-96.63722 z"
     id="rect833-1-5-1"
     inkscape:connector-curvature="0"
     sodipodi:nodetypes="sczcs" />
  <path
     style="opacity:1;fill:#ff8989;fill-opacity:1;stroke:none;stroke-width:3.10609484;stroke-linecap:round;stroke-linejoin:round;stroke-miterlimit:4;stroke-dasharray:none;stroke-dashoffset:3.5999999;stroke-opacity:1"
     d="m 375.84964,528.49673 c 30.29531,-26.54219 58.00356,15.62024 58.00356,15.62024 0,0 26.06822,-43.59928 58.0035,-15.62024 31.93528,27.97903 -58.0035,96.63721 -58.0035,96.63721 0,0 -87.37748,-70.90223 -58.00356,-96.63721 z"
     id="rect833-4-2"
     inkscape:connector-curvature="0"
     sodipodi:nodetypes="sczcs" />
  <path
     style="opacity:1;fill:#ffd5d5;fill-opacity:1;stroke:none;stroke-width:3.10609484;stroke-linecap:round;stroke-linejoin:round;stroke-miterlimit:4;stroke-dasharray:none;stroke-dashoffset:3.5999999;stroke-opacity:1"
     d="m 547.81332,43.67631 c 30.29525,-26.542184 58.0035,15.620242 58.0035,15.620242 0,0 26.06827,-43.599278 58.00356,-15.620242 31.93526,27.979037 -58.00356,96.63723 -58.00356,96.63723 0,0 -87.37742,-70.90225 -58.0035,-96.63723 z"
     id="rect833-2-9"
     inkscape:connector-curvature="0"
     sodipodi:nodetypes="sczcs" />
  <path
     style="opacity:1;fill:#ff8989;fill-opacity:1;stroke:none;stroke-width:3.10609484;stroke-linecap:round;stroke-linejoin:round;stroke-miterlimit:4;stroke-dasharray:none;stroke-dashoffset:3.5999999;stroke-opacity:1"
     d="m 719.777,366.88992 c 30.29526,-26.54218 58.00357,15.62025 58.00357,15.62025 0,0 26.06816,-43.59929 58.00343,-15.62025 31.93529,27.97903 -58.00343,96.63722 -58.00343,96.63722 0,0 -87.37755,-70.90224 -58.00357,-96.63722 z"
     id="rect833-8-3"
     inkscape:connector-curvature="0"
     sodipodi:nodetypes="sczcs" />
  <path
     style="opacity:1;fill:#800000;fill-opacity:1;stroke:none;stroke-width:4.34688139;stroke-linecap:round;stroke-linejoin:round;stroke-miterlimit:4;stroke-dasharray:none;stroke-dashoffset:3.5999999;stroke-opacity:1"
     d="m 510.78381,22.071394 c -39.68429,-39.684299 -75.97987,23.35447 -75.97987,23.35447 0,0 -34.14725,-65.187062 -75.97985,-23.35447 -41.83259,41.832611 75.97985,144.486276 75.97985,144.486276 0,0 114.45729,-106.008851 75.97987,-144.486276 z"
     id="rect833-1-79"
     inkscape:connector-curvature="0"
     sodipodi:nodetypes="sczcs" />
  <path
     style="opacity:1;fill:#800000;fill-opacity:1;stroke:none;stroke-width:4.34688139;stroke-linecap:round;stroke-linejoin:round;stroke-miterlimit:4;stroke-dasharray:none;stroke-dashoffset:3.5999999;stroke-opacity:1"
     d="m 166.85646,506.8918 c -39.68429,-39.68431 -75.979855,23.35444 -75.979855,23.35444 0,0 -34.147196,-65.18704 -75.979793,-23.35444 -41.832649,41.8326 75.979793,144.48629 75.979793,144.48629 0,0 114.457285,-106.00886 75.979855,-144.48629 z"
     id="rect833-1-7-6"
     inkscape:connector-curvature="0"
     sodipodi:nodetypes="sczcs" />
  <path
     style="opacity:1;fill:#530000;fill-opacity:1;stroke:none;stroke-width:4.34688139;stroke-linecap:round;stroke-linejoin:round;stroke-miterlimit:4;stroke-dasharray:none;stroke-dashoffset:3.5999999;stroke-opacity:1"
     d="m 682.74741,506.89181 c -39.68428,-39.68429 -75.97979,23.35446 -75.97979,23.35446 0,0 -34.14725,-65.18705 -75.97979,-23.35446 -41.83271,41.8326 75.97979,144.48626 75.97979,144.48626 0,0 114.45729,-106.00883 75.97979,-144.48626 z"
     id="rect833-1-3-46"
     inkscape:connector-curvature="0"
     sodipodi:nodetypes="sczcs" />
  <path
     style="opacity:1;fill:#ff8989;fill-opacity:1;stroke:none;stroke-width:4.34688139;stroke-linecap:round;stroke-linejoin:round;stroke-miterlimit:4;stroke-dasharray:none;stroke-dashoffset:3.5999999;stroke-opacity:1"
     d="m 854.71107,183.67821 c -39.68429,-39.68431 -75.97979,23.35446 -75.97979,23.35446 0,0 -34.14726,-65.18707 -75.97986,-23.35446 -41.83257,41.83261 75.97986,144.48626 75.97986,144.48626 0,0 114.4572,-106.00884 75.97979,-144.48626 z"
     id="rect833-4-0"
     inkscape:connector-curvature="0"
     sodipodi:nodetypes="sczcs" />
  <path
     style="opacity:1;fill:#800000;fill-opacity:1;stroke:none;stroke-width:3.10609484;stroke-linecap:round;stroke-linejoin:round;stroke-miterlimit:4;stroke-dasharray:none;stroke-dashoffset:3.5999999;stroke-opacity:1"
     d="m 148.75256,205.28312 c -30.29518,-26.54218 -58.003495,15.62023 -58.003495,15.62023 0,0 -26.06822,-43.59927 -58.003503,-15.62023 -31.93528433,27.97902 58.003503,96.63721 58.003503,96.63721 0,0 87.377415,-70.90224 58.003495,-96.63721 z"
     id="rect833-1-1-6"
     inkscape:connector-curvature="0"
     sodipodi:nodetypes="sczcs" />
  <path
     style="opacity:1;fill:#530000;fill-opacity:1;stroke:none;stroke-width:3.10609484;stroke-linecap:round;stroke-linejoin:round;stroke-miterlimit:4;stroke-dasharray:none;stroke-dashoffset:3.5999999;stroke-opacity:1"
     d="m 492.67994,205.28312 c -30.29526,-26.54218 -58.00358,15.62024 -58.00358,15.62024 0,0 -26.06821,-43.59928 -58.00348,-15.62024 -31.93535,27.97904 58.00348,96.63721 58.00348,96.63721 0,0 87.37749,-70.90222 58.00358,-96.63721 z"
     id="rect833-1-7-5-7"
     inkscape:connector-curvature="0"
     sodipodi:nodetypes="sczcs" />
  <path
     style="opacity:1;fill:#800000;fill-opacity:1;stroke:none;stroke-width:3.10609484;stroke-linecap:round;stroke-linejoin:round;stroke-miterlimit:4;stroke-dasharray:none;stroke-dashoffset:3.5999999;stroke-opacity:1"
     d="m 836.60719,43.67631 c -30.29524,-26.542184 -58.0035,15.620242 -58.0035,15.620242 0,0 -26.06821,-43.599278 -58.0035,-15.620242 -31.93528,27.979037 58.0035,96.63722 58.0035,96.63722 0,0 87.37742,-70.902231 58.0035,-96.63722 z"
     id="rect833-1-5-1-6"
     inkscape:connector-curvature="0"
     sodipodi:nodetypes="sczcs" />
  <path
     style="opacity:1;fill:#ffd5d5;fill-opacity:1;stroke:none;stroke-width:3.10609484;stroke-linecap:round;stroke-linejoin:round;stroke-miterlimit:4;stroke-dasharray:none;stroke-dashoffset:3.5999999;stroke-opacity:1"
     d="m 320.71623,205.2831 c -30.29525,-26.54214 -58.0035,15.62024 -58.0035,15.62024 0,0 -26.06822,-43.59928 -58.0035,-15.62024 -31.93529,27.97903 58.0035,96.63725 58.0035,96.63725 0,0 87.37741,-70.90224 58.0035,-96.63725 z"
     id="rect833-6-4-1"
     inkscape:connector-curvature="0"
     sodipodi:nodetypes="sczcs" />
  <path
     style="opacity:1;fill:#ffd5d5;fill-opacity:1;stroke:none;stroke-width:3.10609484;stroke-linecap:round;stroke-linejoin:round;stroke-miterlimit:4;stroke-dasharray:none;stroke-dashoffset:3.5999999;stroke-opacity:1"
     d="m 836.60719,528.49672 c -30.29524,-26.54219 -58.00356,15.62025 -58.00356,15.62025 0,0 -26.06815,-43.59928 -58.00344,-15.62025 -31.93528,27.97903 58.00344,96.63722 58.00344,96.63722 0,0 87.37754,-70.90223 58.00356,-96.63722 z"
     id="rect833-8-3-9"
     inkscape:connector-curvature="0"
     sodipodi:nodetypes="sczcs" />
  <path
     style="opacity:1;fill:#530000;fill-opacity:1;stroke:none;stroke-width:3.10609484;stroke-linecap:round;stroke-linejoin:round;stroke-miterlimit:4;stroke-dasharray:none;stroke-dashoffset:3.5999999;stroke-opacity:1"
     d="m 31.92231,366.88991 c 30.295253,-26.54219 58.003504,15.62025 58.003504,15.62025 0,0 26.068216,-43.59928 58.003556,-15.62025 31.93529,27.97904 -58.003556,96.63723 -58.003556,96.63723 0,0 -87.3773599,-70.90225 -58.003504,-96.63723 z"
     id="rect833-1-33-8-8"
     inkscape:connector-curvature="0"
     sodipodi:nodetypes="sczcs" />
  <path
     style="opacity:1;fill:#ffd5d5;fill-opacity:1;stroke:none;stroke-width:4.34688139;stroke-linecap:round;stroke-linejoin:round;stroke-miterlimit:4;stroke-dasharray:none;stroke-dashoffset:3.5999999;stroke-opacity:1"
     d="m 877.18717,26.378602 c 39.68428,-39.6843 75.97986,23.35447 75.97986,23.35447 0,0 34.14717,-65.187072 75.97987,-23.35447 41.8325,41.83261 -75.97987,144.486268 -75.97987,144.486268 0,0 -114.45734,-106.008834 -75.97986,-144.486268 z"
     id="rect833-6"
     inkscape:connector-curvature="0"
     sodipodi:nodetypes="sczcs" />
  <path
     style="opacity:1;fill:#530000;fill-opacity:1;stroke:none;stroke-width:4.34688139;stroke-linecap:round;stroke-linejoin:round;stroke-miterlimit:4;stroke-dasharray:none;stroke-dashoffset:3.5999999;stroke-opacity:1"
     d="m 1049.1509,26.378602 c 39.6842,-39.6843 75.9798,23.354461 75.9798,23.354461 0,0 34.1472,-65.187063 75.9799,-23.354461 41.8325,41.832602 -75.9799,144.486278 -75.9799,144.486278 0,0 -114.4573,-106.008853 -75.9798,-144.486278 z"
     id="rect833-1-9"
     inkscape:connector-curvature="0"
     sodipodi:nodetypes="sczcs" />
  <path
     style="opacity:1;fill:#ff8989;fill-opacity:1;stroke:none;stroke-width:4.34688139;stroke-linecap:round;stroke-linejoin:round;stroke-miterlimit:4;stroke-dasharray:none;stroke-dashoffset:3.5999999;stroke-opacity:1"
     d="m 1221.1145,349.59221 c 39.6843,-39.68429 75.9799,23.35447 75.9799,23.35447 0,0 34.1472,-65.18706 75.9798,-23.35447 41.8326,41.83261 -75.9798,144.48627 -75.9798,144.48627 0,0 -114.4573,-106.00883 -75.9799,-144.48627 z"
     id="rect833-4-4"
     inkscape:connector-curvature="0"
     sodipodi:nodetypes="sczcs" />
  <path
     style="opacity:1;fill:#800000;fill-opacity:1;stroke:none;stroke-width:3.10609484;stroke-linecap:round;stroke-linejoin:round;stroke-miterlimit:4;stroke-dasharray:none;stroke-dashoffset:3.5999999;stroke-opacity:1"
     d="m 1067.2547,532.80394 c 30.2952,-26.54218 58.0036,15.62024 58.0036,15.62024 0,0 26.0681,-43.59928 58.0034,-15.62024 31.9354,27.97903 -58.0034,96.63721 -58.0034,96.63721 0,0 -87.3774,-70.90223 -58.0036,-96.63721 z"
     id="rect833-1-7-5-5"
     inkscape:connector-curvature="0"
     sodipodi:nodetypes="sczcs" />
  <path
     style="opacity:1;fill:#800000;fill-opacity:1;stroke:none;stroke-width:3.10609484;stroke-linecap:round;stroke-linejoin:round;stroke-miterlimit:4;stroke-dasharray:none;stroke-dashoffset:3.5999999;stroke-opacity:1"
     d="m 1067.2547,371.19713 c 30.2953,-26.54219 58.0036,15.62025 58.0036,15.62025 0,0 26.0682,-43.59928 58.0035,-15.62025 31.9353,27.97903 -58.0035,96.63722 -58.0035,96.63722 0,0 -87.3774,-70.90224 -58.0036,-96.63722 z"
     id="rect833-1-5-1-7"
     inkscape:connector-curvature="0"
     sodipodi:nodetypes="sczcs" />
  <path
     style="opacity:1;fill:#ff8989;fill-opacity:1;stroke:none;stroke-width:3.10609484;stroke-linecap:round;stroke-linejoin:round;stroke-miterlimit:4;stroke-dasharray:none;stroke-dashoffset:3.5999999;stroke-opacity:1"
     d="m 1239.2183,532.80394 c 30.2954,-26.54219 58.0036,15.62023 58.0036,15.62023 0,0 26.0683,-43.59928 58.0036,-15.62023 31.9352,27.97903 -58.0036,96.63721 -58.0036,96.63721 0,0 -87.3775,-70.90223 -58.0036,-96.63721 z"
     id="rect833-4-2-0"
     inkscape:connector-curvature="0"
     sodipodi:nodetypes="sczcs" />
  <path
     style="opacity:1;fill:#800000;fill-opacity:1;stroke:none;stroke-width:4.34688139;stroke-linecap:round;stroke-linejoin:round;stroke-miterlimit:4;stroke-dasharray:none;stroke-dashoffset:3.5999999;stroke-opacity:1"
     d="m 1374.1525,26.378602 c -39.6843,-39.6843 -75.9798,23.354461 -75.9798,23.354461 0,0 -34.1472,-65.187063 -75.9798,-23.354461 -41.8327,41.832602 75.9798,144.486278 75.9798,144.486278 0,0 114.4573,-106.008853 75.9798,-144.486278 z"
     id="rect833-1-79-7"
     inkscape:connector-curvature="0"
     sodipodi:nodetypes="sczcs" />
  <path
     style="opacity:1;fill:#800000;fill-opacity:1;stroke:none;stroke-width:4.34688139;stroke-linecap:round;stroke-linejoin:round;stroke-miterlimit:4;stroke-dasharray:none;stroke-dashoffset:3.5999999;stroke-opacity:1"
     d="m 1030.2252,511.19901 c -39.68435,-39.68431 -75.97984,23.35444 -75.97984,23.35444 0,0 -34.14726,-65.18704 -75.97984,-23.35444 -41.83265,41.8326 75.97984,144.48623 75.97984,144.48623 0,0 114.45724,-106.0088 75.97984,-144.48623 z"
     id="rect833-1-7-6-7"
     inkscape:connector-curvature="0"
     sodipodi:nodetypes="sczcs" />
  <path
     style="opacity:1;fill:#800000;fill-opacity:1;stroke:none;stroke-width:3.10609484;stroke-linecap:round;stroke-linejoin:round;stroke-miterlimit:4;stroke-dasharray:none;stroke-dashoffset:3.5999999;stroke-opacity:1"
     d="m 1012.1213,209.59032 c -30.29518,-26.54219 -58.0035,15.62024 -58.0035,15.62024 0,0 -26.06824,-43.59927 -58.00353,-15.62024 -31.93524,27.97903 58.00353,96.63722 58.00353,96.63722 0,0 87.3775,-70.90224 58.0035,-96.63722 z"
     id="rect833-1-1-6-3"
     inkscape:connector-curvature="0"
     sodipodi:nodetypes="sczcs" />
  <path
     style="opacity:1;fill:#530000;fill-opacity:1;stroke:none;stroke-width:3.10609484;stroke-linecap:round;stroke-linejoin:round;stroke-miterlimit:4;stroke-dasharray:none;stroke-dashoffset:3.5999999;stroke-opacity:1"
     d="m 1356.0487,209.59032 c -30.2954,-26.54217 -58.0035,15.62025 -58.0035,15.62025 0,0 -26.0683,-43.59928 -58.0036,-15.62025 -31.9353,27.97905 58.0036,96.63722 58.0036,96.63722 0,0 87.3774,-70.90223 58.0035,-96.63722 z"
     id="rect833-1-7-5-7-9"
     inkscape:connector-curvature="0"
     sodipodi:nodetypes="sczcs" />
  <path
     style="opacity:1;fill:#ffd5d5;fill-opacity:1;stroke:none;stroke-width:3.10609484;stroke-linecap:round;stroke-linejoin:round;stroke-miterlimit:4;stroke-dasharray:none;stroke-dashoffset:3.5999999;stroke-opacity:1"
     d="m 1184.085,209.59031 c -30.2953,-26.54214 -58.0035,15.62024 -58.0035,15.62024 0,0 -26.0683,-43.59928 -58.0035,-15.62024 -31.9354,27.97903 58.0035,96.63725 58.0035,96.63725 0,0 87.3774,-70.90225 58.0035,-96.63725 z"
     id="rect833-6-4-1-1"
     inkscape:connector-curvature="0"
     sodipodi:nodetypes="sczcs" />
  <path
     style="opacity:1;fill:#530000;fill-opacity:1;stroke:none;stroke-width:3.10609484;stroke-linecap:round;stroke-linejoin:round;stroke-miterlimit:4;stroke-dasharray:none;stroke-dashoffset:3.5999999;stroke-opacity:1"
     d="m 895.29106,371.19712 c 30.29521,-26.54219 58.00354,15.62025 58.00354,15.62025 0,0 26.06814,-43.59928 58.0035,-15.62025 31.9353,27.97904 -58.0035,96.63724 -58.0035,96.63724 0,0 -87.37741,-70.90226 -58.00354,-96.63724 z"
     id="rect833-1-33-8-8-1"
     inkscape:connector-curvature="0"
     sodipodi:nodetypes="sczcs" />
  <path
     style="opacity:1;fill:#800000;fill-opacity:1;stroke:none;stroke-width:3.13562965;stroke-linecap:round;stroke-linejoin:round;stroke-miterlimit:4;stroke-dasharray:none;stroke-dashoffset:3.5999999;stroke-opacity:1"
     d="m 552.91516,683.76488 c 30.58332,-26.79457 58.55511,15.76875 58.55511,15.76875 0,0 26.31609,-44.01384 58.55504,-15.76875 32.23893,28.24506 -58.55504,97.5561 -58.55504,97.5561 0,0 -88.20833,-71.57643 -58.55511,-97.5561 z"
     id="rect833-1-1-8"
     inkscape:connector-curvature="0"
     sodipodi:nodetypes="sczcs" />
  <path
     style="opacity:1;fill:#ff8989;fill-opacity:1;stroke:none;stroke-width:4.38821459;stroke-linecap:round;stroke-linejoin:round;stroke-miterlimit:4;stroke-dasharray:none;stroke-dashoffset:3.5999999;stroke-opacity:1"
     d="m 862.73113,661.95453 c -40.06164,-40.06165 -76.70226,23.57654 -76.70226,23.57654 0,0 -34.47196,-65.80692 -76.70232,-23.57654 -42.23035,42.23038 76.70232,145.86014 76.70232,145.86014 0,0 115.54554,-107.01685 76.70226,-145.86014 z"
     id="rect833-4-0-4"
     inkscape:connector-curvature="0"
     sodipodi:nodetypes="sczcs" />
  <path
     style="opacity:1;fill:#800000;fill-opacity:1;stroke:none;stroke-width:3.13562965;stroke-linecap:round;stroke-linejoin:round;stroke-miterlimit:4;stroke-dasharray:none;stroke-dashoffset:3.5999999;stroke-opacity:1"
     d="m 150.05988,683.76488 c -30.58325,-26.79457 -58.555025,15.76875 -58.555025,15.76875 0,0 -26.316099,-44.01384 -58.555047,-15.76875 -32.238939,28.24506 58.555047,97.5561 58.555047,97.5561 0,0 88.208255,-71.57643 58.555025,-97.5561 z"
     id="rect833-1-1-6-4"
     inkscape:connector-curvature="0"
     sodipodi:nodetypes="sczcs" />
  <path
     style="opacity:1;fill:#530000;fill-opacity:1;stroke:none;stroke-width:3.13562965;stroke-linecap:round;stroke-linejoin:round;stroke-miterlimit:4;stroke-dasharray:none;stroke-dashoffset:3.5999999;stroke-opacity:1"
     d="m 497.25755,683.76488 c -30.58332,-26.79457 -58.5551,15.76876 -58.5551,15.76876 0,0 -26.31609,-44.01385 -58.55503,-15.76876 -32.23901,28.24508 58.55503,97.5561 58.55503,97.5561 0,0 88.20833,-71.57641 58.5551,-97.5561 z"
     id="rect833-1-7-5-7-1"
     inkscape:connector-curvature="0"
     sodipodi:nodetypes="sczcs" />
  <path
     style="opacity:1;fill:#ffd5d5;fill-opacity:1;stroke:none;stroke-width:3.13562965;stroke-linecap:round;stroke-linejoin:round;stroke-miterlimit:4;stroke-dasharray:none;stroke-dashoffset:3.5999999;stroke-opacity:1"
     d="m 323.6587,683.76486 c -30.58332,-26.79453 -58.55504,15.76876 -58.55504,15.76876 0,0 -26.31609,-44.01385 -58.55504,-15.76876 -32.23895,28.24507 58.55504,97.55614 58.55504,97.55614 0,0 88.20826,-71.57643 58.55504,-97.55614 z"
     id="rect833-6-4-1-3"
     inkscape:connector-curvature="0"
     sodipodi:nodetypes="sczcs" />
  <path
     style="opacity:1;fill:#800000;fill-opacity:1;stroke:none;stroke-width:3.13562965;stroke-linecap:round;stroke-linejoin:round;stroke-miterlimit:4;stroke-dasharray:none;stroke-dashoffset:3.5999999;stroke-opacity:1"
     d="m 1021.6381,688.11303 c -30.58322,-26.79456 -58.55501,15.76877 -58.55501,15.76877 0,0 -26.31612,-44.01384 -58.55507,-15.76877 -32.23891,28.24508 58.55507,97.55611 58.55507,97.55611 0,0 88.20831,-71.57642 58.55501,-97.55611 z"
     id="rect833-1-1-6-3-8"
     inkscape:connector-curvature="0"
     sodipodi:nodetypes="sczcs" />
  <path
     style="opacity:1;fill:#530000;fill-opacity:1;stroke:none;stroke-width:3.13562965;stroke-linecap:round;stroke-linejoin:round;stroke-miterlimit:4;stroke-dasharray:none;stroke-dashoffset:3.5999999;stroke-opacity:1"
     d="m 1368.8358,688.11303 c -30.5834,-26.79455 -58.5551,15.76878 -58.5551,15.76878 0,0 -26.3161,-44.01385 -58.5551,-15.76878 -32.239,28.2451 58.5551,97.55611 58.5551,97.55611 0,0 88.2083,-71.57641 58.5551,-97.55611 z"
     id="rect833-1-7-5-7-9-2"
     inkscape:connector-curvature="0"
     sodipodi:nodetypes="sczcs" />
  <path
     style="opacity:1;fill:#ffd5d5;fill-opacity:1;stroke:none;stroke-width:3.13562965;stroke-linecap:round;stroke-linejoin:round;stroke-miterlimit:4;stroke-dasharray:none;stroke-dashoffset:3.5999999;stroke-opacity:1"
     d="m 1195.237,688.11302 c -30.5834,-26.79452 -58.5551,15.76877 -58.5551,15.76877 0,0 -26.3161,-44.01385 -58.555,-15.76877 -32.239,28.24508 58.555,97.55614 58.555,97.55614 0,0 88.2082,-71.57643 58.5551,-97.55614 z"
     id="rect833-6-4-1-1-5"
     inkscape:connector-curvature="0"
     sodipodi:nodetypes="sczcs" />
  <path
     style="opacity:1;fill:#ff8989;fill-opacity:1;stroke:none;stroke-width:3.10609484;stroke-linecap:round;stroke-linejoin:round;stroke-miterlimit:4;stroke-dasharray:none;stroke-dashoffset:3.5999999;stroke-opacity:1"
     d="m 1407.0566,368.52928 c 30.2953,-26.54218 58.0036,15.62025 58.0036,15.62025 0,0 26.0682,-43.59929 58.0034,-15.62025 31.9353,27.97903 -58.0034,96.63722 -58.0034,96.63722 0,0 -87.3775,-70.90224 -58.0036,-96.63722 z"
     id="rect833-8-3-1"
     inkscape:connector-curvature="0"
     sodipodi:nodetypes="sczcs" />
  <path
     style="opacity:1;fill:#ff8989;fill-opacity:1;stroke:none;stroke-width:4.34688139;stroke-linecap:round;stroke-linejoin:round;stroke-miterlimit:4;stroke-dasharray:none;stroke-dashoffset:3.5999999;stroke-opacity:1"
     d="m 1541.9907,185.31757 c -39.6843,-39.68431 -75.9798,23.35446 -75.9798,23.35446 0,0 -34.1472,-65.18707 -75.9798,-23.35446 -41.8326,41.83261 75.9798,144.48626 75.9798,144.48626 0,0 114.4572,-106.00884 75.9798,-144.48626 z"
     id="rect833-4-0-3"
     inkscape:connector-curvature="0"
     sodipodi:nodetypes="sczcs" />
  <path
     style="opacity:1;fill:#800000;fill-opacity:1;stroke:none;stroke-width:3.10609484;stroke-linecap:round;stroke-linejoin:round;stroke-miterlimit:4;stroke-dasharray:none;stroke-dashoffset:3.5999999;stroke-opacity:1"
     d="m 1523.8868,45.315669 c -30.2952,-26.54218 -58.0035,15.62024 -58.0035,15.62024 0,0 -26.0682,-43.59927 -58.0035,-15.62024 -31.9353,27.97904 58.0035,96.637221 58.0035,96.637221 0,0 87.3774,-70.902231 58.0035,-96.637221 z"
     id="rect833-1-5-1-6-8"
     inkscape:connector-curvature="0"
     sodipodi:nodetypes="sczcs" />
  <path
     style="opacity:1;fill:#ffd5d5;fill-opacity:1;stroke:none;stroke-width:3.10609484;stroke-linecap:round;stroke-linejoin:round;stroke-miterlimit:4;stroke-dasharray:none;stroke-dashoffset:3.5999999;stroke-opacity:1"
     d="m 1523.8868,530.13608 c -30.2952,-26.54219 -58.0035,15.62025 -58.0035,15.62025 0,0 -26.0682,-43.59928 -58.0035,-15.62025 -31.9353,27.97903 58.0035,96.63722 58.0035,96.63722 0,0 87.3775,-70.90223 58.0035,-96.63722 z"
     id="rect833-8-3-9-1"
     inkscape:connector-curvature="0"
     sodipodi:nodetypes="sczcs" />
  <path
     style="opacity:1;fill:#ffd5d5;fill-opacity:1;stroke:none;stroke-width:4.34688139;stroke-linecap:round;stroke-linejoin:round;stroke-miterlimit:4;stroke-dasharray:none;stroke-dashoffset:3.5999999;stroke-opacity:1"
     d="m 1564.4668,28.017959 c 39.6843,-39.6843 75.9799,23.35447 75.9799,23.35447 0,0 34.1471,-65.18707 75.9798,-23.35447 41.8325,41.83261 -75.9798,144.486271 -75.9798,144.486271 0,0 -114.4574,-106.008831 -75.9799,-144.486271 z"
     id="rect833-6-0"
     inkscape:connector-curvature="0"
     sodipodi:nodetypes="sczcs" />
  <path
     style="opacity:1;fill:#530000;fill-opacity:1;stroke:none;stroke-width:4.34688139;stroke-linecap:round;stroke-linejoin:round;stroke-miterlimit:4;stroke-dasharray:none;stroke-dashoffset:3.5999999;stroke-opacity:1"
     d="m 1736.4305,28.017959 c 39.6842,-39.6843 75.9798,23.35447 75.9798,23.35447 0,0 34.1472,-65.18707 75.9799,-23.35447 41.8325,41.83261 -75.9799,144.486281 -75.9799,144.486281 0,0 -114.4573,-106.008851 -75.9798,-144.486281 z"
     id="rect833-1-9-1"
     inkscape:connector-curvature="0"
     sodipodi:nodetypes="sczcs" />
  <path
     style="opacity:1;fill:#800000;fill-opacity:1;stroke:none;stroke-width:3.10609484;stroke-linecap:round;stroke-linejoin:round;stroke-miterlimit:4;stroke-dasharray:none;stroke-dashoffset:3.5999999;stroke-opacity:1"
     d="m 1754.5343,534.4433 c 30.2952,-26.54218 58.0036,15.62024 58.0036,15.62024 0,0 26.0681,-43.59928 58.0034,-15.62024 31.9354,27.97903 -58.0034,96.63721 -58.0034,96.63721 0,0 -87.3774,-70.90223 -58.0036,-96.63721 z"
     id="rect833-1-7-5-5-4"
     inkscape:connector-curvature="0"
     sodipodi:nodetypes="sczcs" />
  <path
     style="opacity:1;fill:#800000;fill-opacity:1;stroke:none;stroke-width:3.10609484;stroke-linecap:round;stroke-linejoin:round;stroke-miterlimit:4;stroke-dasharray:none;stroke-dashoffset:3.5999999;stroke-opacity:1"
     d="m 1754.5343,372.83649 c 30.2953,-26.54219 58.0036,15.62025 58.0036,15.62025 0,0 26.0682,-43.59928 58.0035,-15.62025 31.9353,27.97903 -58.0035,96.63722 -58.0035,96.63722 0,0 -87.3774,-70.90224 -58.0036,-96.63722 z"
     id="rect833-1-5-1-7-1"
     inkscape:connector-curvature="0"
     sodipodi:nodetypes="sczcs" />
  <path
     style="opacity:1;fill:#800000;fill-opacity:1;stroke:none;stroke-width:4.34688139;stroke-linecap:round;stroke-linejoin:round;stroke-miterlimit:4;stroke-dasharray:none;stroke-dashoffset:3.5999999;stroke-opacity:1"
     d="m 1717.5048,512.83837 c -39.6843,-39.68431 -75.9798,23.35444 -75.9798,23.35444 0,0 -34.1473,-65.18704 -75.9798,-23.35444 -41.8327,41.8326 75.9798,144.48623 75.9798,144.48623 0,0 114.4572,-106.0088 75.9798,-144.48623 z"
     id="rect833-1-7-6-7-8"
     inkscape:connector-curvature="0"
     sodipodi:nodetypes="sczcs" />
  <path
     style="opacity:1;fill:#800000;fill-opacity:1;stroke:none;stroke-width:3.10609484;stroke-linecap:round;stroke-linejoin:round;stroke-miterlimit:4;stroke-dasharray:none;stroke-dashoffset:3.5999999;stroke-opacity:1"
     d="m 1699.4009,211.22968 c -30.2951,-26.54219 -58.0035,15.62024 -58.0035,15.62024 0,0 -26.0682,-43.59927 -58.0035,-15.62024 -31.9352,27.97903 58.0035,96.63722 58.0035,96.63722 0,0 87.3775,-70.90224 58.0035,-96.63722 z"
     id="rect833-1-1-6-3-81"
     inkscape:connector-curvature="0"
     sodipodi:nodetypes="sczcs" />
  <path
     style="opacity:1;fill:#ffd5d5;fill-opacity:1;stroke:none;stroke-width:3.10609484;stroke-linecap:round;stroke-linejoin:round;stroke-miterlimit:4;stroke-dasharray:none;stroke-dashoffset:3.5999999;stroke-opacity:1"
     d="m 1871.3646,211.22967 c -30.2953,-26.54214 -58.0035,15.62024 -58.0035,15.62024 0,0 -26.0683,-43.59928 -58.0035,-15.62024 -31.9354,27.97903 58.0035,96.63725 58.0035,96.63725 0,0 87.3774,-70.90225 58.0035,-96.63725 z"
     id="rect833-6-4-1-1-9"
     inkscape:connector-curvature="0"
     sodipodi:nodetypes="sczcs" />
  <path
     style="opacity:1;fill:#530000;fill-opacity:1;stroke:none;stroke-width:3.10609484;stroke-linecap:round;stroke-linejoin:round;stroke-miterlimit:4;stroke-dasharray:none;stroke-dashoffset:3.5999999;stroke-opacity:1"
     d="m 1582.5707,372.83648 c 30.2952,-26.54219 58.0035,15.62025 58.0035,15.62025 0,0 26.0682,-43.59928 58.0035,-15.62025 31.9353,27.97904 -58.0035,96.63724 -58.0035,96.63724 0,0 -87.3774,-70.90226 -58.0035,-96.63724 z"
     id="rect833-1-33-8-8-1-4"
     inkscape:connector-curvature="0"
     sodipodi:nodetypes="sczcs" />
  <path
     style="opacity:1;fill:#ff8989;fill-opacity:1;stroke:none;stroke-width:4.38821459;stroke-linecap:round;stroke-linejoin:round;stroke-miterlimit:4;stroke-dasharray:none;stroke-dashoffset:3.5999999;stroke-opacity:1"
     d="m 1550.0108,663.59389 c -40.0617,-40.06165 -76.7023,23.57654 -76.7023,23.57654 0,0 -34.472,-65.80692 -76.7023,-23.57654 -42.2304,42.23038 76.7023,145.86014 76.7023,145.86014 0,0 115.5455,-107.01685 76.7023,-145.86014 z"
     id="rect833-4-0-4-5"
     inkscape:connector-curvature="0"
     sodipodi:nodetypes="sczcs" />
  <path
     style="opacity:1;fill:#800000;fill-opacity:1;stroke:none;stroke-width:3.13562965;stroke-linecap:round;stroke-linejoin:round;stroke-miterlimit:4;stroke-dasharray:none;stroke-dashoffset:3.5999999;stroke-opacity:1"
     d="m 1708.9177,689.75239 c -30.5832,-26.79456 -58.555,15.76877 -58.555,15.76877 0,0 -26.3161,-44.01384 -58.555,-15.76877 -32.239,28.24508 58.555,97.55611 58.555,97.55611 0,0 88.2083,-71.57642 58.555,-97.55611 z"
     id="rect833-1-1-6-3-8-6"
     inkscape:connector-curvature="0"
     sodipodi:nodetypes="sczcs" />
  <path
     style="opacity:1;fill:#ffd5d5;fill-opacity:1;stroke:none;stroke-width:3.13562965;stroke-linecap:round;stroke-linejoin:round;stroke-miterlimit:4;stroke-dasharray:none;stroke-dashoffset:3.5999999;stroke-opacity:1"
     d="m 1882.5166,689.75238 c -30.5834,-26.79452 -58.5551,15.76877 -58.5551,15.76877 0,0 -26.3161,-44.01385 -58.555,-15.76877 -32.239,28.24508 58.555,97.55614 58.555,97.55614 0,0 88.2082,-71.57643 58.5551,-97.55614 z"
     id="rect833-6-4-1-1-5-8"
     inkscape:connector-curvature="0"
     sodipodi:nodetypes="sczcs" />
</svg>
