<?xml version="1.0" encoding="UTF-8" standalone="no"?>
<svg
   xmlns:dc="http://purl.org/dc/elements/1.1/"
   xmlns:cc="http://creativecommons.org/ns#"
   xmlns:rdf="http://www.w3.org/1999/02/22-rdf-syntax-ns#"
   xmlns:svg="http://www.w3.org/2000/svg"
   xmlns="http://www.w3.org/2000/svg"
   xmlns:sodipodi="http://sodipodi.sourceforge.net/DTD/sodipodi-0.dtd"
   xmlns:inkscape="http://www.inkscape.org/namespaces/inkscape"
   width="152"
   height="47"
   viewBox="0 0 152 47"
   fill="none"
   version="1.1"
   id="svg23"
   sodipodi:docname="tithely.svg"
   inkscape:version="0.92.4 (5da689c313, 2019-01-14)">
  <metadata
     id="metadata29">
    <rdf:RDF>
      <cc:Work
         rdf:about="">
        <dc:format>image/svg+xml</dc:format>
        <dc:type
           rdf:resource="http://purl.org/dc/dcmitype/StillImage" />
      </cc:Work>
    </rdf:RDF>
  </metadata>
  <defs
     id="defs27" />
  <sodipodi:namedview
     pagecolor="#ffffff"
     bordercolor="#666666"
     borderopacity="1"
     objecttolerance="10"
     gridtolerance="10"
     guidetolerance="10"
     inkscape:pageopacity="0"
     inkscape:pageshadow="2"
     inkscape:window-width="1920"
     inkscape:window-height="1001"
     id="namedview25"
     showgrid="false"
     inkscape:zoom="2.2302632"
     inkscape:cx="76"
     inkscape:cy="23.5"
     inkscape:window-x="-9"
     inkscape:window-y="-9"
     inkscape:window-maximized="1"
     inkscape:current-layer="svg23" />
  <mask
     id="mask0"
     mask-type="alpha"
     maskUnits="userSpaceOnUse"
     x="0"
     y="0"
     width="47"
     height="47">
    <path
       d="M46.5011 23.596C46.5011 36.1664 36.3104 46.3571 23.74 46.3571C11.1692 46.3571 0.978638 36.1664 0.978638 23.596C0.978638 11.0251 11.1692 0.834534 23.74 0.834534C36.3104 0.834534 46.5011 11.0251 46.5011 23.596Z"
       fill="white"
       id="path2" />
  </mask>
  <g
     mask="url(#mask0)"
     id="g19">
    <path
       d="M46.5011 23.596C46.5011 36.1664 36.3104 46.3571 23.74 46.3571C11.1692 46.3571 0.978638 36.1664 0.978638 23.596C0.978638 11.0251 11.1692 0.834534 23.74 0.834534C36.3104 0.834534 46.5011 11.0251 46.5011 23.596Z"
       fill="#62D19F"
       id="path5" />
    <path
       fill-rule="evenodd"
       clip-rule="evenodd"
       d="M46.5011 23.596C46.5011 36.1664 36.3104 46.3571 23.74 46.3571C11.1692 46.3571 0.978638 36.1664 0.978638 23.596C0.978638 11.0251 11.1692 0.834534 23.74 0.834534C36.3104 0.834534 46.5011 11.0251 46.5011 23.596Z"
       fill="#5BD6A4"
       id="path7" />
    <path
       fill-rule="evenodd"
       clip-rule="evenodd"
       d="M16.9584 57.4358H32.6078V36.7936H16.9584V57.4358ZM33.502 33.4416C33.502 32.0268 32.3156 30.6829 30.8956 30.6829H18.3001C16.8803 30.6829 15.7661 32.0268 15.7661 33.4416V60.7617C15.7661 62.1763 16.8803 63.3229 18.3001 63.3229H30.8956C32.3156 63.3229 33.502 62.1763 33.502 60.7617V33.4416Z"
       fill="#FFFFFE"
       id="path9" />
    <path
       fill-rule="evenodd"
       clip-rule="evenodd"
       d="M24.1136 6.38571C24.1136 6.38571 27.5679 10.37 27.5351 13.5192C27.5028 16.6692 24.2983 18.3344 24.2983 18.3344C24.2983 18.3344 21.0449 16.7691 20.9145 13.6224C20.786 10.4748 24.1136 6.38571 24.1136 6.38571Z"
       fill="#FFFFFE"
       id="path11" />
    <path
       fill-rule="evenodd"
       clip-rule="evenodd"
       d="M13.2589 16.4251C13.2589 16.4251 18.4515 15.5086 21.1369 17.1544C23.823 18.8005 23.6051 22.4052 23.6051 22.4052C23.6051 22.4052 20.5901 24.3932 17.8237 22.888C15.0578 21.3815 13.2589 16.4251 13.2589 16.4251Z"
       fill="#FFFFFE"
       id="path13" />
    <path
       fill-rule="evenodd"
       clip-rule="evenodd"
       d="M27.3292 17.1544C24.6424 18.8005 24.8612 22.4052 24.8612 22.4052L24.4835 28.832H25.1864C25.1864 28.832 24.9991 24.337 25.7478 23.9166C26.4965 23.4947 28.1101 23.4439 28.1101 23.4439H28.1086C28.9127 23.4833 29.7891 23.3517 30.6421 22.888C33.4085 21.3815 35.2067 16.4251 35.2067 16.4251C35.2067 16.4251 30.0141 15.5086 27.3292 17.1544Z"
       fill="#FFFFFE"
       id="path15" />
    <path
       d="M26.305 33.8155C26.305 32.8927 25.5572 32.1449 24.6343 32.1449C23.7114 32.1449 22.9631 32.8927 22.9631 33.8155C22.9631 34.7384 23.7114 35.4861 24.6343 35.4861C25.5572 35.4861 26.305 34.7384 26.305 33.8155Z"
       fill="#5BD6A4"
       id="path17" />
  </g>
  <path
     fill-rule="evenodd"
     clip-rule="evenodd"
     d="M56.7596 13.8391H74.5573V16.9237H67.3781V32.9471H63.9387V16.9237H56.7596V13.8391ZM78.7027 12.3378C79.8764 12.3378 80.7772 13.2386 80.7772 14.3577C80.7772 15.4769 79.8764 16.3777 78.7027 16.3777C77.5289 16.3777 76.6281 15.4769 76.6281 14.3577C76.6281 13.2386 77.5289 12.3378 78.7027 12.3378ZM80.3132 19.1347V32.9471H77.0921V19.1347H80.3132ZM93.2482 29.1801L93.3301 29.2347L92.7296 32.3192C91.8288 32.8925 90.655 33.2473 89.454 33.2473C86.6151 33.2473 84.9772 31.473 84.9772 28.3066V21.7826H82.7389V19.1347H84.9772V16.1594L88.1437 15.1767V19.1347H93.2482V21.7826H88.1437V28.1155C88.1437 29.6441 88.8807 30.4084 90.3275 30.4084C91.2829 30.4084 92.2383 30.0263 93.2482 29.1801ZM102.689 21.728C101.461 21.728 100.506 22.2466 99.0588 23.6933V32.9471H95.8377V13.2386L99.0588 12.2286V21.6188C100.506 19.6807 101.952 18.8618 103.836 18.8618C106.757 18.8618 108.613 20.9363 108.613 24.212V32.9471H105.364V24.7033C105.364 22.8198 104.409 21.728 102.689 21.728ZM117.59 21.3458C115.652 21.3458 114.259 22.8198 114.014 25.0036H120.947C120.756 22.7107 119.528 21.3458 117.59 21.3458ZM123.595 28.9617L123.677 29.0163L122.694 32.1008C121.084 32.9471 119.801 33.2473 118.081 33.2473C115.87 33.2473 114.096 32.5922 112.813 31.2819C111.502 29.999 110.847 28.252 110.847 26.0409C110.847 24.0209 111.502 22.3012 112.813 20.8818C114.096 19.4623 115.734 18.7526 117.672 18.7526C119.637 18.7526 121.193 19.4077 122.367 20.7453C123.513 22.0828 124.086 23.8025 124.086 25.9317C124.086 26.3412 124.032 26.8871 124.005 27.1055H114.041C114.451 29.2893 116.116 30.5176 118.545 30.5176C120.183 30.5176 121.957 29.9444 123.595 28.9617ZM127.549 33.1927C126.348 33.1927 125.366 32.21 125.366 31.009C125.366 29.8079 126.348 28.7979 127.549 28.7979C128.75 28.7979 129.733 29.8079 129.733 31.009C129.733 32.21 128.75 33.1927 127.549 33.1927ZM135.407 12.2286V32.9471H132.186V13.2386L135.407 12.2286ZM140.59 38.2427C139.744 38.2427 138.979 38.0789 138.215 37.7513L137.587 34.6395L137.669 34.5849C138.461 35.0489 139.17 35.2673 140.017 35.2673C141.409 35.2673 142.282 34.5849 142.91 33.0835L143.292 32.21L137.505 19.1347H141.027L144.93 28.6068L148.533 19.1347H152L145.967 33.9298C144.794 36.7959 143.019 38.2427 140.59 38.2427Z"
     fill="#20343B"
     id="path21"
     style="fill:#ffffff" />
</svg>
