<?xml version="1.0" encoding="UTF-8" standalone="no"?>
<svg
   xmlns:dc="http://purl.org/dc/elements/1.1/"
   xmlns:cc="http://creativecommons.org/ns#"
   xmlns:rdf="http://www.w3.org/1999/02/22-rdf-syntax-ns#"
   xmlns:svg="http://www.w3.org/2000/svg"
   xmlns="http://www.w3.org/2000/svg"
   xmlns:sodipodi="http://sodipodi.sourceforge.net/DTD/sodipodi-0.dtd"
   xmlns:inkscape="http://www.inkscape.org/namespaces/inkscape"
   id="svg8"
   version="1.1"
   viewBox="0 0 100 100"
   height="100mm"
   width="100mm"
   sodipodi:docname="tithely.svg"
   inkscape:version="0.92.4 (5da689c313, 2019-01-14)">
  <sodipodi:namedview
     pagecolor="#ffffff"
     bordercolor="#666666"
     borderopacity="1"
     objecttolerance="10"
     gridtolerance="10"
     guidetolerance="10"
     inkscape:pageopacity="0"
     inkscape:pageshadow="2"
     inkscape:window-width="1920"
     inkscape:window-height="1001"
     id="namedview10"
     showgrid="false"
     inkscape:zoom="0.62441667"
     inkscape:cx="948.08488"
     inkscape:cy="188.97638"
     inkscape:window-x="-9"
     inkscape:window-y="-9"
     inkscape:window-maximized="1"
     inkscape:current-layer="g19" />
  <defs
     id="defs2">
    <mask
       id="mask0"
       mask-type="alpha"
       maskUnits="userSpaceOnUse"
       x="0"
       y="0"
       width="47"
       height="47">
      <path
         style="fill:#ffffff"
         inkscape:connector-curvature="0"
         d="M 46.5011,23.596 C 46.5011,36.1664 36.3104,46.3571 23.74,46.3571 11.1692,46.3571 0.978638,36.1664 0.978638,23.596 0.978638,11.0251 11.1692,0.834534 23.74,0.834534 c 12.5704,0 22.7611,10.190566 22.7611,22.761466 z"
         id="path2" />
    </mask>
  </defs>
  <metadata
     id="metadata5">
    <rdf:RDF>
      <cc:Work
         rdf:about="">
        <dc:format>image/svg+xml</dc:format>
        <dc:type
           rdf:resource="http://purl.org/dc/dcmitype/StillImage" />
        <dc:title />
      </cc:Work>
    </rdf:RDF>
  </metadata>
  <g
     transform="translate(0,-197)"
     id="layer1">
    <g
       transform="translate(-4.2758866,0.03630862)"
       id="g840">
      <path
         style="opacity:1;fill:#ffffff;fill-opacity:1;stroke:none;stroke-width:1.00157475;stroke-miterlimit:4;stroke-dasharray:none;stroke-opacity:1"
         d="m 161.63281,166.26758 c -25.39404,14.78559 -42.47656,42.28238 -42.47656,73.78515 0,28.00438 -3.25695,58.654 15.30469,80.78125 32.15135,5.57931 106.86579,5.22148 141.53515,0.20118 15.54716,-16.01641 13.84604,-52.5686 13.84571,-80.98243 0,-31.35009 -16.91501,-58.73573 -42.10547,-73.57226 -11.36207,11.43363 -26.81062,17.87029 -42.92969,17.88672 -16.23452,-0.008 -31.7874,-6.52771 -43.17383,-18.09961 z"
         transform="matrix(0.26458333,0,0,0.26458333,0,197)"
         id="path816" />
      <circle
         style="opacity:1;fill:#ffffff;fill-opacity:1;stroke:none;stroke-width:0.26499999;stroke-miterlimit:4;stroke-dasharray:none;stroke-opacity:1"
         id="path818-6"
         cx="54.188473"
         cy="227.70726"
         r="16.036171" />
    </g>
    <g
       transform="matrix(2.170347,0,0,2.170347,-1.5602018,196.34955)"
       mask="url(#mask0)"
       id="g19"
       style="stroke:#196546;stroke-opacity:1">
      <path
         style="fill:#62d19f;stroke:none;stroke-opacity:1"
         inkscape:connector-curvature="0"
         d="M 46.5011,23.596 C 46.5011,36.1664 36.3104,46.3571 23.74,46.3571 11.1692,46.3571 0.978638,36.1664 0.978638,23.596 0.978638,11.0251 11.1692,0.834534 23.74,0.834534 c 12.5704,0 22.7611,10.190566 22.7611,22.761466 z"
         id="path5" />
      <path
         style="clip-rule:evenodd;fill:#5bd6a4;fill-rule:evenodd;stroke:none;stroke-opacity:1;stroke-width:0.31732733;stroke-miterlimit:4;stroke-dasharray:none"
         inkscape:connector-curvature="0"
         d="M 46.5011,23.596 C 46.5011,36.1664 36.3104,46.3571 23.74,46.3571 11.1692,46.3571 0.978638,36.1664 0.978638,23.596 0.978638,11.0251 11.1692,0.834534 23.74,0.834534 c 12.5704,0 22.7611,10.190566 22.7611,22.761466 z"
         id="path7" />
      <path
         style="clip-rule:evenodd;fill:#fffffe;fill-rule:evenodd;stroke:none;stroke-opacity:1;stroke-width:0.28075483;stroke-miterlimit:4;stroke-dasharray:none"
         inkscape:connector-curvature="0"
         d="M 16.9584,57.4358 H 32.6078 V 36.7936 H 16.9584 Z M 33.502,33.4416 c 0,-1.4148 -1.1864,-2.7587 -2.6064,-2.7587 H 18.3001 c -1.4198,0 -2.534,1.3439 -2.534,2.7587 v 27.3201 c 0,1.4146 1.1142,2.5612 2.534,2.5612 h 12.5955 c 1.42,0 2.6064,-1.1466 2.6064,-2.5612 z"
         id="path9" />
      <path
         style="clip-rule:evenodd;fill:#fffffe;fill-rule:evenodd;stroke:none;stroke-opacity:1;stroke-width:0.28075483;stroke-miterlimit:4;stroke-dasharray:none"
         inkscape:connector-curvature="0"
         d="m 24.1136,6.38571 c 0,0 3.4543,3.98429 3.4215,7.13349 -0.0323,3.15 -3.2368,4.8152 -3.2368,4.8152 0,0 -3.2534,-1.5653 -3.3838,-4.712 -0.1285,-3.1476 3.1991,-7.23669 3.1991,-7.23669 z"
         id="path11" />
      <path
         style="clip-rule:evenodd;fill:#fffffe;fill-rule:evenodd;stroke:none;stroke-opacity:1;stroke-width:0.28075483;stroke-miterlimit:4;stroke-dasharray:none"
         inkscape:connector-curvature="0"
         d="m 13.2589,16.4251 c 0,0 5.1926,-0.9165 7.878,0.7293 2.6861,1.6461 2.4682,5.2508 2.4682,5.2508 0,0 -3.015,1.988 -5.7814,0.4828 -2.7659,-1.5065 -4.5648,-6.4629 -4.5648,-6.4629 z"
         id="path13" />
      <path
         style="clip-rule:evenodd;fill:#fffffe;fill-rule:evenodd;stroke:none;stroke-opacity:1;stroke-width:0.28075483;stroke-miterlimit:4;stroke-dasharray:none"
         inkscape:connector-curvature="0"
         d="m 27.3292,17.1544 c -2.6868,1.6461 -2.468,5.2508 -2.468,5.2508 l -0.3777,6.4268 h 0.7029 c 0,0 -0.1873,-4.495 0.5614,-4.9154 0.7487,-0.4219 2.3623,-0.4727 2.3623,-0.4727 h -0.0015 c 0.8041,0.0394 1.6805,-0.0922 2.5335,-0.5559 2.7664,-1.5065 4.5646,-6.4629 4.5646,-6.4629 0,0 -5.1926,-0.9165 -7.8775,0.7293 z"
         id="path15" />
      <path
         style="fill:#5bd6a4;stroke:none;stroke-opacity:1;stroke-width:0.21980068;stroke-miterlimit:4;stroke-dasharray:none"
         inkscape:connector-curvature="0"
         d="m 26.305,33.8155 c 0,-0.9228 -0.7478,-1.6706 -1.6707,-1.6706 -0.9229,0 -1.6712,0.7478 -1.6712,1.6706 0,0.9229 0.7483,1.6706 1.6712,1.6706 0.9229,0 1.6707,-0.7477 1.6707,-1.6706 z"
         id="path17" />
    </g>
  </g>
</svg>
